# xmcd
#
# Track frame offsets:
#	150
#	9797
#	21497
#	30355
#	41532
#	50832
#	59605
#	70440
#	81797
#	90087
#	100592
#	109612
#	120447
#
# Disc length: 1729 seconds
# Revision: 3
# Processed by: cddbd v1.5.2PL0 Copyright (c) Steve Scherf et al.
# Submitted via: dBpowerAMP V12.0
#
DISCID=9706bf0d
DTITLE=Johnny Cash - Original Album Classics, Disc 2 [Hymns by Johnny Cash]
DYEAR=1959
DGENRE=Country
TTITLE0=It Was Jesus
TTITLE1=I Saw a Man
TTITLE2=Are All the Children In
TTITLE3=The Old Account
TTITLE4=Lead Me Gently Home
TTITLE5=Swing Low, Sweet Chariot
TTITLE6=Snow in His Hair
TTITLE7=Lead Me Father
TTITLE8=I Call Him
TTITLE9=These Things Shall Pass
TTITLE10=He'll Be a Friend
TTITLE11=God Will
TTITLE12=It Was Jesus (Mono Ep Version)
EXTD=
EXTT0=
EXTT1=
EXTT2=
EXTT3=
EXTT4=
EXTT5=
EXTT6=
EXTT7=
EXTT8=
EXTT9=
EXTT10=
EXTT11=
EXTT12=
PLAYORDER=
